# xmcd CD database file
#
# Track frame offsets:
#	150
#	12583
#	35484
#	58100
#	89127
#	106383
#	127715
#	148965
#	168163
#	184401
#	214924
#	238180
#	265662
#
# Disc length: 3966 seconds
#
# Revision: 0
# Processed by: cddbd v1.5.2PL0 Copyright (c) Steve Scherf et al.
# Submitted via: CDex 1.51
#
DISCID=c20f7c0d
DTITLE=Nick Vigarino - Temptation Road
DYEAR=2006
DGENRE=Blues
TTITLE0=What You Do
TTITLE1=Temptation Road
TTITLE2=Rumba Bluz
TTITLE3=Boomchuck
TTITLE4=Cut Me Off
TTITLE5=Torn
TTITLE6=Monday Woman
TTITLE7=Cow Song
TTITLE8=Zihua Stomp
TTITLE9=Tullips
TTITLE10=Summer Kiss
TTITLE11=Corndog
TTITLE12=Tsunami
EXTD=YEAR: 2006
EXTT0=
EXTT1=
EXTT2=
EXTT3=
EXTT4=
EXTT5=
EXTT6=
EXTT7=
EXTT8=
EXTT9=
EXTT10=
EXTT11=
EXTT12=
PLAYORDER=
